<?xml version="1.0" standalone="no"?>
<!DOCTYPE svg PUBLIC "-//W3C//DTD SVG 20010904//EN"
 "http://www.w3.org/TR/2001/REC-SVG-20010904/DTD/svg10.dtd">
<svg version="1.0" xmlns="http://www.w3.org/2000/svg"
 width="500.000000pt" height="500.000000pt" viewBox="0 0 500.000000 500.000000"
 preserveAspectRatio="xMidYMid meet">
<metadata>
Created by potrace 1.14, written by Peter Selinger 2001-2017
</metadata>
<g transform="translate(0.000000,500.000000) scale(0.100000,-0.100000)"
fill="#000000" stroke="none">
<path d="M0 3779 l0 -1221 193 5 c130 4 211 11 251 22 253 68 423 222 531 480
110 262 212 421 380 591 161 162 306 262 507 351 328 144 729 173 1088 79 171
-45 372 -141 525 -251 111 -79 276 -242 361 -355 70 -94 166 -272 224 -416 51
-127 93 -195 170 -273 116 -118 275 -199 436 -220 38 -5 129 -9 202 -10 l132
-2 0 1220 0 1221 -2500 0 -2500 0 0 -1221z"/>
<path d="M2296 3604 c-404 -80 -738 -384 -850 -777 -27 -92 -46 -192 -46 -239
0 -26 3 -28 39 -28 l38 0 6 60 c29 270 185 541 409 711 201 151 419 218 676
206 308 -13 590 -163 780 -416 105 -139 184 -335 198 -492 l7 -69 44 0 43 0
-5 43 c-43 320 -136 510 -349 714 -157 151 -328 242 -531 284 -109 23 -353 24
-459 3z"/>
<path d="M2420 3498 c-242 -23 -487 -145 -646 -322 -136 -150 -230 -359 -250
-554 l-7 -62 998 0 998 0 -6 68 c-25 263 -197 547 -425 701 -131 88 -316 156
-456 167 -39 3 -82 6 -96 8 -14 1 -63 -1 -110 -6z"/>
<path d="M0 1225 l0 -1225 2500 0 2500 0 0 1225 0 1225 -2500 0 -2500 0 0
-1225z m1416 1088 c55 -252 150 -436 304 -592 228 -229 517 -342 849 -328 277
11 513 110 718 300 160 149 299 402 328 600 l7 47 265 0 264 0 -6 -37 c-34
-213 -71 -338 -146 -493 -102 -212 -182 -322 -350 -485 -226 -218 -473 -350
-789 -423 -105 -24 -135 -26 -335 -26 -194 -1 -233 2 -330 22 -226 48 -444
142 -625 270 -119 84 -306 270 -387 385 -81 115 -175 300 -217 429 -35 104
-76 285 -76 332 l0 26 260 0 260 0 6 -27z m120 0 c32 -142 75 -246 148 -358
71 -108 135 -177 230 -247 298 -221 692 -263 1022 -109 278 131 473 370 550
674 13 55 20 67 36 67 18 0 20 -4 13 -47 -10 -67 -67 -221 -109 -298 -231
-412 -726 -621 -1181 -498 -344 94 -630 374 -729 717 -32 108 -32 126 -6 126
13 0 22 -9 26 -27z"/>
</g>
</svg>
