<?xml version="1.0" encoding="UTF-8"?><svg id="Layer_1" xmlns="http://www.w3.org/2000/svg" viewBox="0 0 145.24 102.57"><defs><style>.cls-1{fill:#fcbd1f;}</style></defs><g id="Group_826"><g id="Group_825"><g id="Group_824"><path id="Path_1018" class="cls-1" d="m116.37,14.37c-.46,9.64-.09,19.29-.26,28.94-.12,7.08-.68,13.6-4.36,19.81-2.93,4.97-7.25,8.82-13.17,9.2-1.89.12-3.81.06-5.7.09-9.04.14-18.07.29-27.11.43-4.06.07-8.11.18-12.17.28-1.18.03-2.36.04-3.53.15-.65.06-4.59.3-1.55.24-7.14.15-7.16,11.26,0,11.11-2.22.05-.24.01.89.11,1.01.09,2,.08,3.01.08,3.08-.02,6.16-.11,9.24-.17,8.23-.15,16.46-.43,24.69-.65,4.5-.12,9.07,0,13.55-.41,11.53-1.05,19.89-9.9,24.13-20.14,2.71-6.56,3.19-13.11,3.22-20.14.18-9.67-.31-19.33-1.45-28.93-.78-5.86-9.13-6.25-9.43,0"/></g></g><path id="Path_1019" class="cls-1" d="m30.89,85.81c.84.04,1.67-.15,2.41-.54.77-.25,1.46-.7,2.01-1.29.6-.55,1.04-1.24,1.29-2.01.39-.74.58-1.57.54-2.41-.07-.55-.15-1.11-.22-1.66-.29-1.04-.84-1.99-1.61-2.76l-1.26-.98c-.96-.56-2.05-.86-3.16-.85-.84-.04-1.67.15-2.41.54-.77.25-1.46.7-2.01,1.29-.6.55-1.04,1.24-1.29,2.01-.39.74-.58,1.57-.54,2.41.07.55.15,1.11.22,1.66.29,1.04.84,1.99,1.61,2.76l1.27.98c.96.56,2.05.86,3.16.85"/></g></svg>