<?xml version="1.0" encoding="UTF-8"?><svg id="Layer_1" xmlns="http://www.w3.org/2000/svg" viewBox="0 0 217.8 69.22"><defs><style>.cls-1{fill:#ff540a;}</style></defs><g id="Group_585"><g id="Group_587"><g id="Group_586"><path id="Path_559" class="cls-1" d="m23.19,27.68c-1.81,15.1,11.8,27.45,26.63,24.76,15.26-2.77,19.39-22.86,35.98-22.42,6.98.19,11.48,5.3,16.2,9.77,4.77,4.51,10.01,8.63,16.75,9.38,12.58,1.4,20.78-8.96,29.44-16.23,4.77-4.01,10.43-6.93,16.56-4.02,7.58,3.6,10.98,11.67,15.73,17.99,3.26,4.34,12.2,2.03,9.75-4.11-4.77-11.95-15.86-25.43-29.58-26.35-12.74-.86-20.94,9.62-29.75,16.97-3.74,3.12-8.34,6.01-13.33,4.11-5.62-2.14-9.66-7.63-14.22-11.31-11.49-9.25-26.24-8.82-37.83.23-6.21,4.85-9.98,14.52-18.46,15.71-8.66,1.22-15.03-6.27-14.62-14.48.3-6.06-8.54-5.74-9.23,0"/></g></g></g></svg>