<?xml version="1.0" encoding="utf-8"?>
<!-- Generator: Adobe Illustrator 27.1.1, SVG Export Plug-In . SVG Version: 6.00 Build 0)  -->
<svg version="1.1" id="Layer_1" xmlns="http://www.w3.org/2000/svg" xmlns:xlink="http://www.w3.org/1999/xlink" x="0px" y="0px"
	 viewBox="0 0 217.8 76.8" style="enable-background:new 0 0 217.8 76.8;" xml:space="preserve">
<style type="text/css">
	.st0{fill:#FCBD1F;}
</style>
<g id="Group_566">
	<path id="Path_192" class="st0" d="M25.1,50.3c1.8-6,6.8-10.6,13.1-11.6c6.5-0.9,13.1,3.2,18.5,6.2c6.2,3.5,12.5,7.4,19.4,9.2
		c6,1.5,12.2,1.1,18-1.1c10.5-3.9,18.8-12.3,29.4-15.8c5-1.8,10.5-1.5,15.3,0.9c6.5,3.3,11.7,8.6,18,12.1
		c13.9,7.7,34.6,5.9,44.8-7.2c4.1-5.3-2.1-11.8-7.4-7.4c-4.9,4.1-10.7,7.2-17.2,7.8c-7.1,0.7-13.1-1.5-18.9-5.4
		c-6.2-4.2-11.9-9.2-19.2-11.6c-6-1.9-12.4-1.8-18.3,0.3c-10.9,3.7-19.3,12.3-30.1,16.1c-5.1,1.9-10.8,1.8-15.9-0.3
		c-6.8-2.6-12.9-6.9-19.5-9.9c-7.6-3.4-15.6-5.4-23.6-2.2c-7.6,3-13.8,9.5-15.3,17.7C15,53.6,23.4,56.1,25.1,50.3"/>
</g>
</svg>
