<?xml version="1.0" encoding="UTF-8"?><svg id="Layer_1" xmlns="http://www.w3.org/2000/svg" viewBox="0 0 217.8 61.12"><defs><style>.cls-1{fill:#ff540a;}</style></defs><g id="Group_807"><g id="Group_566"><path id="Path_192" class="cls-1" d="m189.66,20.86c-1.77,6.05-6.83,10.57-13.05,11.64-6.46.94-13.09-3.16-18.48-6.16-6.2-3.45-12.48-7.44-19.44-9.18-5.97-1.46-12.25-1.07-18,1.12-10.49,3.94-18.82,12.3-29.4,15.84-5,1.85-10.54,1.52-15.29-.9-6.47-3.32-11.67-8.58-18.02-12.09-13.89-7.66-34.62-5.94-44.79,7.2-4.09,5.28,2.14,11.84,7.41,7.41,4.9-4.11,10.72-7.22,17.17-7.82,7.07-.65,13.11,1.53,18.91,5.42,6.25,4.2,11.92,9.21,19.2,11.59,5.97,1.86,12.38,1.76,18.3-.27,10.94-3.66,19.32-12.3,30.12-16.09,5.14-1.9,10.82-1.79,15.88.33,6.79,2.63,12.86,6.87,19.48,9.88,7.56,3.44,15.58,5.43,23.6,2.25,7.65-3.04,13.76-9.52,15.32-17.72,1.1-5.8-7.23-8.26-8.94-2.46"/></g></g></svg>