<?xml version="1.0" encoding="UTF-8"?><svg id="Layer_1" xmlns="http://www.w3.org/2000/svg" xmlns:xlink="http://www.w3.org/1999/xlink" viewBox="0 0 169.53 41.67"><defs><style>.cls-1{fill:none;}.cls-2{clip-path:url(#clippath);}.cls-3{fill:#fcbd1f;}</style><clipPath id="clippath"><rect class="cls-1" x="10.55" y="16.13" width="143.49" height="15.43"/></clipPath></defs><g id="Group_810"><g class="cls-2"><g id="Group_583"><path id="Path_556" class="cls-3" d="m41.31,26.87c10.26-.12,20.69.98,30.98,1.16,7.49.13,14.98.34,22.46.69,17.8.85,35.62,2.47,53.43,2.84,7.96.17,7.69-11.49,0-12.2-17.7-1.61-35.65-2.48-53.43-2.97-7.25-.2-14.49-.29-21.74-.26-10.6.03-21.15,1.35-31.7,1.48-5.95.08-5.97,9.32,0,9.26"/><path id="Path_557" class="cls-3" d="m21.22,29.32c.84.04,1.67-.15,2.41-.54.77-.25,1.46-.7,2.01-1.29.6-.55,1.04-1.24,1.29-2.01.39-.74.58-1.57.54-2.41-.07-.55-.15-1.11-.22-1.66-.29-1.04-.84-1.99-1.61-2.76l-1.26-.98c-.96-.56-2.05-.86-3.16-.85-.84-.04-1.67.15-2.41.54-.77.25-1.46.7-2.01,1.29-.6.55-1.04,1.24-1.29,2.01-.39.74-.58,1.57-.54,2.41.07.55.15,1.11.22,1.66.29,1.04.84,1.99,1.61,2.76l1.27.98c.96.56,2.05.86,3.16.85"/></g></g></g></svg>