<?xml version="1.0" encoding="UTF-8"?><svg id="Layer_1" xmlns="http://www.w3.org/2000/svg" viewBox="0 0 167.69 36.55"><defs><style>.cls-1{fill:#fcbd1f;}</style></defs><g id="Group_808"><g id="Group_713"><path id="Path_911" class="cls-1" d="m30.93,12.94c-4.09.08-8.92-.17-12.8.8-3.25.82-5.57,2.83-5.08,5.45.51,2.69,3.22,4.11,6.76,4.49,1.36.15-1.87-.13-.85-.1.87.02,1.74.26,2.62.26.8,0,1.61-.07,2.4-.1,1.75-.06,3.51-.11,5.27-.14,4.85-.1,9.7-.14,14.54-.17,12.74-.07,61.73-.24,86.92-.18,5.56.01,11.11-.11,16.67-.17,7.67-.08,7.83-8.32.15-8.65-15.36-.65-30.71-1.02-46.08-1.38-26.84-.63-26.83-.4-53.67-.29-5.62.02-11.23.06-16.84.17"/></g></g></svg>