<?xml version="1.0" encoding="UTF-8"?><svg id="Layer_1" xmlns="http://www.w3.org/2000/svg" viewBox="0 0 266.37 251.06" preserveAspectRatio="none"><defs><style>.cls-1{fill:#d3dde8;}</style></defs><path class="cls-1" d="m39.45,79.83c.18-1.49.36-2.98.55-4.47,1.83-14.74,6.97-31.95,21.69-38.58,6.12-2.76,13.01-3.15,19.72-3.49,28.28-1.43,56.57-2.61,84.88-3.52,11.07-.36,22.29-.66,33.08,1.83,35.25,8.14,37.88,38.21,38.34,69.24.3,20.41-.78,40.57-1.28,60.92-.38,15.59.03,32.34-9.37,45.87-6.5,9.36-17.1,15.35-28.19,17.97-23.26,5.5-126.51,1.35-145.65-13.63-22.55-17.64-18.15-53.43-17.75-78.96.28-17.75,1.88-35.55,3.99-53.18Z"/></svg>