<?xml version="1.0" encoding="UTF-8"?><svg id="Layer_1" xmlns="http://www.w3.org/2000/svg" viewBox="0 0 353.63 246.47" preserveAspectRatio="none"><defs><style>.cls-1{fill:#d3dde8;}</style></defs><path class="cls-1" d="m43.12,70.46c3.9-18.66,20.88-34.52,36.72-41.99,28.46-13.42,69.06-8.75,99.57-8.97,28.42-.2,57.71-1.62,85.42,6.1,13.83,3.85,37.5,10.72,46.55,47.67,6.57,26.83,4.95,57.63,1.56,84.9-3.53,28.39-13.88,53.17-43.28,60.39-29.39,7.22-63.79,3.53-93.73,2.62-33.16-1-66.64-2.82-98.9-11.44-7-1.87-14.09-4.18-19.81-8.84-20.97-17.05-19.48-52.22-19.39-77.24.07-19.42,2.08-37.75,5.31-53.22Z"/></svg>