<?xml version="1.0" encoding="UTF-8"?><svg id="Layer_1" xmlns="http://www.w3.org/2000/svg" viewBox="0 0 514.37 375.06" preserveAspectRatio="none"><defs><style>.cls-1{fill:#d3dde8;}</style></defs><path class="cls-1" d="m23.62,269.06c1.02,15.13,3.9,30.12,12.65,41.73,20.76,27.57,46.08,31.75,78.71,33.14,37.91,1.62,75.94,1.69,113.88,1.67,51.62-.03,103.34-.59,154.86-3.88,44.75-2.86,97.44-5.25,114.35-56.46,4.96-15.03,6.31-33.83,7.92-49.6,2.76-26.92-.3-53.95-2.45-80.64-3.21-39.97.25-98.77-45.41-115.15-23.63-8.48-47.12-7.04-71.63-8.9-25.88-1.97-52.35-.81-78.44-1.03-55.47-.47-111.01-1.46-166.39,2.42-32.75,2.29-75.64-3.01-99.76,23.83-21.46,23.88-18.93,58.37-19.27,88.23-.36,31.82-.51,63.65.23,95.46.21,9.17.08,19.21.76,29.18Z"/></svg>