<?xml version="1.0" encoding="UTF-8"?><svg id="Layer_1" xmlns="http://www.w3.org/2000/svg" viewBox="0 0 338.32 246.47" preserveAspectRatio="none"><defs><style>.cls-1{fill:#d3dde8;}</style></defs><g id="Group_743"><path id="pexels-anna-shvets-11369372" class="cls-1" d="m300.64,173.01c-6.67,32.25-21.74,46.51-53.42,47.29-27.34.68-54.9,2.68-81.95,2.78-28.26.1-57.38,1.43-84.96-6.32-13.76-3.86-37.32-10.74-46.43-47.4-6.61-26.61-5.09-57.13-1.8-84.15,3.42-28.13,13.64-52.66,42.86-59.72,29.21-7.07,63.42-3.29,93.2-2.3,32.97,1.1,66.27,3,98.38,11.65,6.97,1.88,14.02,4.19,19.73,8.82,20.9,16.96,19.52,51.82,19.51,76.62.05,17.72-1.67,35.39-5.12,52.72"/></g></svg>