<?xml version="1.0" encoding="UTF-8"?><svg id="Layer_1" xmlns="http://www.w3.org/2000/svg" viewBox="0 0 517.43 375.06" preserveAspectRatio="none"><defs><style>.cls-1{fill:#d3dde8;}</style></defs><path class="cls-1" d="m505.71,105.57c.03-11.03-1.11-21.96-5.55-32.41-15.76-37.06-55.45-42.55-92.1-44.16-50.52-2.23-279.17-5.11-337.52,10.39C12.45,54.82,20.37,105.71,18.68,151.87c-1.29,35.15-3.17,70.81-.96,105.95,1.58,25.26,13.39,49.12,32.78,67.24,22,20.56,56.91,20.13,85.67,19.53,81.79-1.72,163.44,3.23,245.21-2.56,26.19-1.85,53.85-2.08,78.37-12.17,30.68-12.62,41.46-36.7,42.25-67.24,1.19-46.31,3.59-111.34,3.71-157.06Z"/></svg>