<?xml version="1.0" encoding="UTF-8"?><svg id="Layer_1" xmlns="http://www.w3.org/2000/svg" viewBox="0 0 254.12 244.94" preserveAspectRatio="none"><defs><style>.cls-1{fill:#d3dde8;}</style></defs><path class="cls-1" d="m226.54,170.15c-2.83,16.9-8.2,37.14-25.47,44.61-9.92,4.29-21.93,4.14-32.51,5-14.08,1.14-28.2,1.8-42.32,2.17-20.79.55-42.22,2.31-62.39-4.94-10.07-3.62-27.29-10.07-33.45-46.28-4.47-26.29-2.9-56.58-.09-83.43,2.93-27.95,10.81-52.43,32.4-59.9,22.79-7.88,46.62-3.53,69.97-3.29,23.85.25,48.44,1.88,70.79,9.57,5.1,1.75,10.25,3.94,14.38,8.44,15.12,16.5,13.6,51.09,13.22,75.68-.29,19.09-1.99,37.13-4.54,52.37Z"/></svg>