<?xml version="1.0" encoding="UTF-8"?><svg id="Layer_1" xmlns="http://www.w3.org/2000/svg" viewBox="0 0 248 251.06" preserveAspectRatio="none"><defs><style>.cls-1{fill:#d3dde8;}</style></defs><path class="cls-1" d="m27.92,80.6c3.09-18.61,15.72-34.61,27.4-42.24,20.99-13.71,50.62-9.6,72.93-10.21,20.79-.56,42.23-2.36,62.39,4.96,10.06,3.65,27.29,10.17,33.42,46.81,4.45,26.6,2.87,57.25.04,84.42-2.95,28.28-10.84,53.06-32.44,60.63-21.59,7.56-46.7,4.34-68.59,3.82-34.66-.81-76.83-.22-92.14-37.71-5.84-14.3-6.8-30.11-6.53-45.56.38-21.75-.06-43.5,3.5-64.92Z"/></svg>