<?xml version="1.0" encoding="UTF-8"?><svg id="Layer_1" xmlns="http://www.w3.org/2000/svg" viewBox="0 0 333.73 246.47" preserveAspectRatio="none"><defs><style>.cls-1{fill:#d3dde8;}</style></defs><g id="Group_746"><g id="Group_745"><path id="image_5" class="cls-1" d="m25.67,71.51c7.14-32.58,23.3-46.99,57.26-47.78,29.31-.68,147.47-.94,176.41-1.84,22.99-.72,46.01,12.86,52.03,36.14,1.83,7.06,2.04,14.42,2.25,21.7.79,27.45,3.5,52.79-.08,80.46-3.57,27.63-8.02,44.85-38.44,49.14-69.86,9.86-143.71,19.3-212.87,1.74-7.47-1.9-15.03-4.23-21.15-8.91-22.4-17.13-20.93-52.35-20.92-77.39-.05-17.9,1.79-35.75,5.49-53.26"/></g></g></svg>